<svg width="91" height="34" viewBox="0 0 91 34" fill="none" xmlns="http://www.w3.org/2000/svg">
<g filter="url(#filter0_d_1_116)">
<path d="M15.15 2.76007H19.02L28.26 24.0001H22.98L21.15 19.5001H12.9L11.13 24.0001H5.96997L15.15 2.76007ZM16.95 8.94007L14.37 15.5401H19.56L16.95 8.94007Z" fill="#01996D"/>
<path d="M29.8863 1.32007H34.3863V24.0001H29.8863V1.32007Z" fill="#01996D"/>
<path d="M37.6793 9.42007H42.1793V24.0001H37.6793V9.42007ZM37.3193 4.83007C37.3193 4.11007 37.5693 3.50007 38.0693 3.00007C38.5893 2.48007 39.2093 2.22007 39.9293 2.22007C40.6493 2.22007 41.2593 2.48007 41.7593 3.00007C42.2793 3.50007 42.5393 4.11007 42.5393 4.83007C42.5393 5.55007 42.2793 6.17007 41.7593 6.69007C41.2593 7.19007 40.6493 7.44007 39.9293 7.44007C39.2093 7.44007 38.5893 7.19007 38.0693 6.69007C37.5693 6.17007 37.3193 5.55007 37.3193 4.83007Z" fill="#01996D"/>
<path d="M43.8822 9.42007H48.7422L52.4322 19.3201H52.4922L55.9122 9.42007H60.4422L54.6822 24.0001H49.9122L43.8822 9.42007Z" fill="#01996D"/>
<path d="M62.1422 9.42007H66.6422V24.0001H62.1422V9.42007ZM61.7822 4.83007C61.7822 4.11007 62.0322 3.50007 62.5322 3.00007C63.0522 2.48007 63.6722 2.22007 64.3922 2.22007C65.1122 2.22007 65.7222 2.48007 66.2222 3.00007C66.7422 3.50007 67.0022 4.11007 67.0022 4.83007C67.0022 5.55007 66.7422 6.17007 66.2222 6.69007C65.7222 7.19007 65.1122 7.44007 64.3922 7.44007C63.6722 7.44007 63.0522 7.19007 62.5322 6.69007C62.0322 6.17007 61.7822 5.55007 61.7822 4.83007Z" fill="#01996D"/>
<path d="M69.3351 16.7101C69.3351 15.5501 69.5451 14.5001 69.9651 13.5601C70.3851 12.6201 70.9551 11.8201 71.6751 11.1601C72.4151 10.4801 73.2751 9.96007 74.2551 9.60007C75.2551 9.24007 76.3151 9.06007 77.4351 9.06007C78.5551 9.06007 79.6051 9.24007 80.5851 9.60007C81.5851 9.96007 82.4451 10.4801 83.1651 11.1601C83.9051 11.8201 84.4851 12.6201 84.9051 13.5601C85.3251 14.5001 85.5351 15.5501 85.5351 16.7101C85.5351 17.8701 85.3251 18.9201 84.9051 19.8601C84.4851 20.8001 83.9051 21.6101 83.1651 22.2901C82.4451 22.9501 81.5851 23.4601 80.5851 23.8201C79.6051 24.1801 78.5551 24.3601 77.4351 24.3601C76.3151 24.3601 75.2551 24.1801 74.2551 23.8201C73.2751 23.4601 72.4151 22.9501 71.6751 22.2901C70.9551 21.6101 70.3851 20.8001 69.9651 19.8601C69.5451 18.9201 69.3351 17.8701 69.3351 16.7101ZM73.8351 16.7101C73.8351 17.8101 74.1451 18.7001 74.7651 19.3801C75.4051 20.0601 76.2951 20.4001 77.4351 20.4001C78.5751 20.4001 79.4551 20.0601 80.0751 19.3801C80.7151 18.7001 81.0351 17.8101 81.0351 16.7101C81.0351 15.6101 80.7151 14.7201 80.0751 14.0401C79.4551 13.3601 78.5751 13.0201 77.4351 13.0201C76.2951 13.0201 75.4051 13.3601 74.7651 14.0401C74.1451 14.7201 73.8351 15.6101 73.8351 16.7101Z" fill="#01996D"/>
<path d="M15.15 2.26007H14.8214L14.691 2.5617L5.511 23.8017L5.20917 24.5001H5.96997H11.13H11.4706L11.5953 24.1831L13.2406 20.0001H20.8135L22.5168 24.1884L22.6435 24.5001H22.98H28.26H29.0228L28.7185 23.8006L19.4785 2.56061L19.3477 2.26007H19.02H15.15ZM29.8863 0.820068H29.3863V1.32007V24.0001V24.5001H29.8863H34.3863H34.8863V24.0001V1.32007V0.820068H34.3863H29.8863ZM37.6793 8.92007H37.1793V9.42007V24.0001V24.5001H37.6793H42.1793H42.6793V24.0001V9.42007V8.92007H42.1793H37.6793ZM37.7089 7.03662L37.7156 7.04369L37.7227 7.05049C38.3357 7.63985 39.0798 7.94007 39.9293 7.94007C40.7792 7.94007 41.5172 7.63929 42.1128 7.04362C42.7243 6.4321 43.0393 5.68582 43.0393 4.83007C43.0393 3.97703 42.7261 3.23938 42.1129 2.64647C41.52 2.03329 40.7823 1.72007 39.9293 1.72007C39.0735 1.72007 38.3272 2.03499 37.7157 2.64651C37.12 3.24218 36.8193 3.98017 36.8193 4.83007C36.8193 5.67956 37.1195 6.42368 37.7089 7.03662ZM43.8822 8.92007H43.1344L43.4202 9.61116L49.4502 24.1912L49.5779 24.5001H49.9122H54.6822H55.0223L55.1473 24.1838L60.9073 9.60378L61.1774 8.92007H60.4422H55.9122H55.556L55.4396 9.25681L52.4455 17.924L49.2108 9.24544L49.0895 8.92007H48.7422H43.8822ZM62.1422 8.92007H61.6422V9.42007V24.0001V24.5001H62.1422H66.6422H67.1422V24.0001V9.42007V8.92007H66.6422H62.1422ZM62.1717 7.03662L62.1785 7.04369L62.1856 7.05049C62.7985 7.63985 63.5427 7.94007 64.3922 7.94007C65.2421 7.94007 65.98 7.63929 66.5757 7.04362C67.1872 6.4321 67.5022 5.68582 67.5022 4.83007C67.5022 3.97703 67.189 3.23938 66.5758 2.64647C65.9829 2.03329 65.2452 1.72007 64.3922 1.72007C63.5364 1.72007 62.7901 2.03499 62.1786 2.64651C61.5829 3.24218 61.2822 3.98017 61.2822 4.83007C61.2822 5.67956 61.5824 6.42368 62.1717 7.03662ZM74.0858 9.12962L74.0827 9.13073C73.044 9.51232 72.1272 10.0657 71.3373 10.7915C70.5642 11.5002 69.955 12.3571 69.5086 13.3561C69.0565 14.3679 68.8351 15.4887 68.8351 16.7101C68.8351 17.9314 69.0565 19.0522 69.5086 20.064C69.9544 21.0617 70.562 21.9266 71.3318 22.6536L71.337 22.6585L71.3423 22.6632C72.1317 23.3673 73.0468 23.9089 74.0827 24.2894L74.0858 24.2905C75.143 24.6711 76.2605 24.8601 77.4351 24.8601C78.6092 24.8601 79.7175 24.6713 80.7563 24.2899C81.8123 23.9094 82.7304 23.3668 83.503 22.6586L83.5034 22.6582C84.2948 21.931 84.9145 21.0647 85.3616 20.064C85.8137 19.0522 86.0351 17.9314 86.0351 16.7101C86.0351 15.4887 85.8137 14.3679 85.3616 13.3561C84.9149 12.3563 84.2954 11.4995 83.5032 10.7916C82.7311 10.0638 81.813 9.51092 80.7562 9.13024C79.7174 8.74885 78.6091 8.56007 77.4351 8.56007C76.2605 8.56007 75.143 8.74903 74.0858 9.12962ZM79.711 19.0374L79.711 19.0373L79.7057 19.0432C79.2023 19.5953 78.4706 19.9001 77.4351 19.9001C76.4021 19.9001 75.6571 19.5965 75.132 19.0403C74.6135 18.4701 74.3351 17.7095 74.3351 16.7101C74.3351 15.7107 74.6135 14.95 75.132 14.3798C75.6571 13.8236 76.4021 13.5201 77.4351 13.5201C78.4706 13.5201 79.2023 13.8248 79.7057 14.3769L79.7056 14.377L79.711 14.3828C80.2485 14.9538 80.5351 15.7133 80.5351 16.7101C80.5351 17.7069 80.2485 18.4664 79.711 19.0374ZM18.8246 15.0401H15.1023L16.9527 10.3065L18.8246 15.0401Z" stroke="black"/>
</g>
<defs>
<filter id="filter0_d_1_116" x="0.448364" y="0.320068" width="90.0868" height="33.04" filterUnits="userSpaceOnUse" color-interpolation-filters="sRGB">
<feFlood flood-opacity="0" result="BackgroundImageFix"/>
<feColorMatrix in="SourceAlpha" type="matrix" values="0 0 0 0 0 0 0 0 0 0 0 0 0 0 0 0 0 0 127 0" result="hardAlpha"/>
<feOffset dy="4"/>
<feGaussianBlur stdDeviation="2"/>
<feComposite in2="hardAlpha" operator="out"/>
<feColorMatrix type="matrix" values="0 0 0 0 0 0 0 0 0 0 0 0 0 0 0 0 0 0 0.25 0"/>
<feBlend mode="normal" in2="BackgroundImageFix" result="effect1_dropShadow_1_116"/>
<feBlend mode="normal" in="SourceGraphic" in2="effect1_dropShadow_1_116" result="shape"/>
</filter>
</defs>
</svg>
